# xmcd CD database file generated by Grip 3.3.1
# 
# Track frame offsets:
#       150
#       37850
#       60982
#       124052
#       152660
#       192397
#       199015
#       230635
#       268485
# 
# Disc length: 3920 seconds
# 
# Revision: 1
# Processed by: cddbd v1.5.2PL0 Copyright (c) Steve Scherf et al.
# Submitted via: Grip 3.3.1
# 
DISCID=7a0f4e09
DTITLE=Dresden Philharmonic Orchestra, Herbert Kegel - Hindemith - Orche
DTITLE=stral Music [CD1)
DYEAR=2013
DGENRE=Classical
TTITLE0=I. Engelconcert - Symphony "Mathis der Maler" (1933-35)
TTITLE1=II. Grablegung - Symphony "Mathis der Maler" (1933-35)
TTITLE2=III. Versuchung des heiligen Antonius - Symphony "Mathis der Male
TTITLE2=r" (1933-35)
TTITLE3=I. Allegro spiritoso - Concerto for trumpet, bassoon and strings 
TTITLE3=(1949-52), Ludwig Güttler (trumpet), Eckart Königstedt (bassoon
TTITLE3=)
TTITLE4=II. Molto adagio - Concerto for trumpet, bassoon and strings (194
TTITLE4=9-52), Ludwig Güttler (trumpet), Eckart Königstedt (bassoon)
TTITLE5=III. Vivace - Concerto for trumpet, bassoon and strings (1949-52)
TTITLE5=, Ludwig Güttler (trumpet), Eckart Königstedt (bassoon)
TTITLE6=I. Einleitung und Rondo - Nobilissima visione - Orchestral Suite 
TTITLE6=(1938)
TTITLE7=II. Marsch und Pastorale - Nobilissima visione - Orchestral Suite
TTITLE7=(1938)
TTITLE8=III. Passacaglia - Nobilissima visione - Orchestral Suite (1938)
EXTD=
EXTT0=
EXTT1=
EXTT2=
EXTT3=
EXTT4=
EXTT5=
EXTT6=
EXTT7=
EXTT8=
PLAYORDER=
